<svg width="459" height="569" viewBox="0 0 459 569" fill="none" xmlns="http://www.w3.org/2000/svg">
<path d="M229.5 0C356.249 3.53723e-06 459 102.751 459 229.5C459 280.213 442.55 327.083 414.696 365.068C414.662 365.131 414.628 365.195 414.594 365.258C413.369 367.496 412.142 369.72 410.91 371.93C408.447 376.349 405.971 380.709 403.482 385.01C400.372 390.385 397.244 395.668 394.1 400.853C392.213 403.964 390.321 407.04 388.424 410.081C383.998 417.175 379.546 424.075 375.077 430.771C373.8 432.685 372.522 434.581 371.243 436.461C370.603 437.401 369.964 438.337 369.323 439.269C368.043 441.131 366.761 442.977 365.479 444.806C364.837 445.72 364.195 446.63 363.554 447.536C362.631 448.839 361.706 450.132 360.782 451.417C359.879 452.673 358.977 453.921 358.073 455.159C348.978 467.629 339.861 479.219 330.794 489.849C329.513 491.351 328.233 492.833 326.954 494.297C324.397 497.224 321.844 500.073 319.298 502.843C318.661 503.535 318.025 504.224 317.39 504.906C316.118 506.271 314.849 507.616 313.581 508.941C310.078 512.603 306.588 516.11 303.12 519.46C301.268 521.249 299.421 522.992 297.58 524.69C296.557 525.634 295.538 526.565 294.519 527.48C293.478 528.415 292.439 529.335 291.403 530.239C290.157 531.328 288.914 532.395 287.674 533.439C285.096 535.612 282.534 537.69 279.988 539.67C279.106 540.356 278.224 541.028 277.346 541.691C273.386 544.68 269.472 547.433 265.606 549.937C264.794 550.463 263.982 550.975 263.174 551.479C261.633 552.441 260.103 553.366 258.58 554.248C256.456 555.477 254.348 556.624 252.26 557.695C251.876 557.892 251.493 558.087 251.11 558.278C249.772 558.948 248.44 559.585 247.117 560.188C246.377 560.526 245.642 560.857 244.907 561.174C243.79 561.655 242.68 562.112 241.575 562.545C240.949 562.79 240.324 563.025 239.701 563.255C239.066 563.489 238.432 563.716 237.801 563.934C236.87 564.255 235.944 564.559 235.022 564.844C234.753 564.927 234.484 565.009 234.215 565.089C232.54 565.589 230.882 566.027 229.24 566.404C228.83 566.499 228.42 566.589 228.012 566.676C223.497 567.635 219.113 568.125 214.876 568.125C215.438 567.58 215.995 567.037 216.548 566.495C269.05 515.015 277.307 477.256 276.732 461.496C276.72 461.164 276.704 460.842 276.685 460.53C276.567 458.657 276.321 457.137 276.017 455.988C275.865 455.414 275.698 454.932 275.526 454.545C275.504 454.494 275.48 454.444 275.457 454.396C260.609 457.415 245.239 459 229.5 459C102.751 459 0 356.249 0 229.5C6.24367e-05 102.751 102.751 0 229.5 0ZM140.569 356.395L173.656 421.858C191.381 426.995 210.119 429.749 229.5 429.749C251.109 429.749 271.919 426.325 291.417 419.992L319.26 359.41L274.117 296.093H189.586L140.569 356.395ZM310.755 199.734L286.975 279.245L333.102 343.941L404.175 327.488C420.459 298.522 429.749 265.096 429.749 229.5C429.749 226.925 429.7 224.361 429.604 221.81L374.217 174.069L310.755 199.734ZM29.2842 225.787C29.2617 227.022 29.251 228.26 29.251 229.5C29.251 266.227 39.1408 300.643 56.3984 330.234L124.998 343.448L171.767 285.91L145.122 196.816L85.9678 176.929L29.2842 225.787ZM238.5 72.0059V124.991L307.292 179.292L366.35 155.408L369.995 86.8125C349.282 66.4159 324.152 50.4926 296.166 40.6152L238.5 72.0059ZM163.685 40.3174C132.091 51.3073 104.099 69.9901 81.9482 94.1201C82.5633 93.6222 83.1819 93.1235 83.8057 92.626L87.1719 155.97L151.572 177.622L218.25 124.991V70.0205L163.685 40.3174Z" fill="#114437"/>
</svg>
